#!OML:ASF H:\Terrain\Patient Classification 1\Walking\liu\liu.ASF
:FULLY-SPECIFIED
:DEGREES
50
root 8.41534 16.2569 -25.7103 6.04532 -6.99652 3.11347
lowerback -2.55024 1.4608 -4.36829
upperback -0.463174 2.05824 0.705629
thorax 0.773536 1.01982 3.2368
lowerneck -26.1142 -2.04588 -11.8355
upperneck 23.5265 -0.150882 7.06779
head 12.0953 -0.188343 4.64022
rclavicle 1.18028e-014 -1.59028e-015
rhumerus -31.8924 19.5241 -91.4454
rradius 42.7755
rwrist -20.5145
rhand -37.2933 -25.5201
rfingers 7.12502
rthumb -10.3576 -55.245
lclavicle 1.18028e-014 -1.59028e-015
lhumerus -44.423 -2.61391 89.0498
lradius 15.0658
lwrist -13.7656
lhand -6.75175 -27.5301
lfingers 7.12502
lthumb 19.1096 1.55114
rfemur -19.6147 -3.21193 16.9489
rtibia 72.457
rfoot -1.86378 -10.5576
rtoes -12.9486
lfemur -24.6196 5.13442 -29.4477
ltibia 30.4139
lfoot -13.1917 3.89277
ltoes -0.48274
51
root 8.42847 16.2932 -25.4565 6.18747 -6.5107 2.85946
lowerback -2.71954 1.19664 -3.86614
upperback -0.351514 1.70117 0.708757
thorax 1.02928 0.834995 2.95496
lowerneck -26.2672 -1.77108 -11.1826
upperneck 23.5805 0.0308216 6.92327
head 12.1221 -0.0661095 4.51062
rclavicle -6.80837e-015 9.14409e-015
rhumerus -32.3955 19.2403 -91.7048
rradius 42.0083
rwrist -20.0677
rhand -37.3824 -25.3308
rfingers 7.12502
rthumb -10.4435 -55.0514
lclavicle -6.80837e-015 9.14409e-015
lhumerus -43.0481 -3.49821 89.3477
lradius 15.5765
lwrist -13.0165
lhand -6.29005 -26.2905
lfingers 7.12502
lthumb 19.5535 2.74622
rfemur -21.5867 -3.27375 17.6457
rtibia 72.1657
rfoot -4.26672 -10.3185
rtoes -15.3855
lfemur -23.3532 4.563 -29.1779
ltibia 29.7772
lfoot -13.8514 4.03232
ltoes -0.936286
52
root 8.44326 16.3095 -25.204 6.16988 -5.91163 2.68479
lowerback -2.62508 0.928317 -3.48047
upperback -0.311724 1.32802 0.80293
thorax 1.0534 0.648713 2.82204
lowerneck -26.4231 -1.9472 -11.7082
upperneck 23.699 -0.0603227 7.18211
head 12.2094 -0.122396 4.69132
rclavicle 1.88348e-014 2.18663e-014
rhumerus -33.0278 18.6583 -91.6557
rradius 41.0325
rwrist -19.4215
rhand -36.7093 -22.2621
rfingers 7.12502
rthumb -9.79421 -52.0143
lclavicle 1.88348e-014 2.18663e-014
lhumerus -41.9039 -4.22546 89.7645
lradius 16.2013
lwrist -12.0051
lhand -6.1601 -25.6735
lfingers 7.12502
lthumb 19.6784 3.35053
rfemur -23.3064 -3.34806 18.209
rtibia 71.6145
rfoot -7.27525 -9.80637
rtoes -18.3121
lfemur -22.0605 3.93271 -29.0199
ltibia 29.2755
lfoot -14.4684 4.28459
ltoes -0.938323
53
root 8.45488 16.3272 -24.9412 6.08243 -5.60442 2.83758
lowerback -2.59802 0.761069 -3.48004
upperback -0.281856 1.10415 0.825212
thorax 1.08514 0.535684 2.83752
lowerneck -26.5295 -2.00678 -11.8138
upperneck 23.9983 -0.0844652 7.15504
head 12.3515 -0.155151 4.70827
rclavicle -2.38542e-015 -7.15625e-015
rhumerus -33.7882 17.9385 -91.4228
rradius 40.1295
rwrist -18.7464
rhand -36.6043 -24.5356
rfingers 7.12502
rthumb -9.69287 -54.2926
lclavicle -2.38542e-015 -7.15625e-015
lhumerus -40.8629 -5.22561 90.4006
lradius 16.8008
lwrist -10.5103
lhand -6.34428 -25.0657
lfingers 7.12502
lthumb 19.5014 3.97634
rfemur -24.8966 -3.11171 18.3156
rtibia 70.8101
rfoot -10.1149 -9.32016
rtoes -19.0395
lfemur -20.6583 3.35355 -29.2083
ltibia 28.8581
lfoot -15.3398 4.58062
ltoes -0.180446
54
root 8.46096 16.3406 -24.6756 6.26796 -5.1502 2.77064
lowerback -2.83983 0.516929 -3.34385
upperback -0.313306 0.781254 0.92148
thorax 1.21296 0.372695 2.8525
lowerneck -26.499 -1.85027 -11.5122
upperneck 24.1192 0.0624874 6.96413
head 12.3761 -0.0916504 4.61258
rclavicle -8.00108e-015 -1.07344e-014
rhumerus -34.5906 17.5753 -91.2873
rradius 39.2778
rwrist -18.5291
rhand -36.3821 -26.6167
rfingers 7.12502
rthumb -9.47845 -56.3835
lclavicle -8.00108e-015 -1.07344e-014
lhumerus -39.9736 -6.47658 91.0603
lradius 17.6042
lwrist -8.84313
lhand -6.2875 -24.3386
lfingers 7.12502
lthumb 19.556 4.69784
rfemur -26.7183 -2.94712 18.7362
rtibia 69.8409
rfoot -12.1394 -9.03503
rtoes -17.1631
lfemur -19.5564 2.72023 -29.1761
ltibia 28.508
lfoot -16.1083 4.86892
ltoes -0.656531
55
root 8.4686 16.3559 -24.4062 6.29393 -4.4861 2.54978
lowerback -2.76461 0.273579 -3.02815
upperback -0.443866 0.441151 1.10633
thorax 1.06279 0.208275 2.85144
lowerneck -25.9272 -1.7992 -11.7056
upperneck 23.897 0.134032 6.99653
head 12.1715 -0.0721038 4.65121
rclavicle 4.12478e-015 1.03368e-014
rhumerus -35.5819 17.1631 -91.11
rradius 38.3993
rwrist -18.6633
rhand -36.0492 -24.1744
rfingers 7.12502
rthumb -9.15731 -53.9556
lclavicle 4.12478e-015 1.03368e-014
lhumerus -39.3021 -7.68382 91.7119
lradius 18.3925
lwrist -6.86751
lhand -5.90859 -24.0988
lfingers 7.12502
lthumb 19.9202 4.90026
rfemur -28.2248 -3.01101 19.3379
rtibia 68.639
rfoot -13.6406 -8.85742
rtoes -16.1745
lfemur -18.2374 1.94634 -28.9791
ltibia 28.0675
lfoot -16.3233 5.36049
ltoes -2.15768
